<svg xmlns="http://www.w3.org/2000/svg" viewBox="0 0 721.27 172.99"><defs><style>.cls-1{fill:#fff;}</style></defs><title>Asset 6</title><g id="Layer_2" data-name="Layer 2"><g id="Layer_1-2" data-name="Layer 1"><path class="cls-1" d="M99.6,49.91l22,23.3c-3.21,0-6.05,0-8.88,0a1.49,1.49,0,0,1-1.14-.62L83.93,43.5c.35-.6.86-.33,1.25-.33,3.95,0,7.9.07,11.85,0a13.78,13.78,0,0,0,5.48-26.39,14.87,14.87,0,0,0-6.17-1.21c-6.13,0-12.25.05-18.37,0-1.4,0-1.67.4-1.67,1.7,0,18.09,0,36.17.06,54.25,0,1.37-.21,2-1.72,1.79a24.52,24.52,0,0,0-4.11,0c-1,.06-1.11-.32-1.11-1.16q0-31.17,0-62.32c0-.91.25-1.14,1.15-1.14,9.09,0,18.2-.1,27.29.08,10.06.2,18.85,8.53,19.68,18.33.91,10.77-5.82,20.24-16,22.47Z"/><path class="cls-1" d="M584.06,15.53H552.23c-2.29,0-4.59.07-6.87,0-1.16,0-1.56.22-1.55,1.47q.11,9.52,0,19.06c0,1.24.37,1.48,1.53,1.47,11.1,0,22.21,0,33.31,0a2.12,2.12,0,0,1,2.25,1.31c.93,1.82,2,3.57,3.16,5.62h-1.95q-18.29,0-36.57,0c-1.27,0-1.76.21-1.74,1.64.1,6.18.09,12.36,0,18.55,0,1.38.27,1.81,1.74,1.8,10.93-.07,21.87,0,32.8-.07a2.61,2.61,0,0,1,2.75,1.64c.84,1.73,1.88,3.37,3,5.29h-1.79c-14.54,0-29.08,0-43.62,0-1.42,0-1.75-.33-1.75-1.76q.08-30.55,0-61.12c0-1.4.29-1.78,1.74-1.78q20,.11,40,0a2.14,2.14,0,0,1,2.24,1.32C581.83,11.74,582.9,13.49,584.06,15.53Z"/><path class="cls-1" d="M665.69,9.14c2.17,3.79,4.35,7.56,6.47,11.36a3.3,3.3,0,0,1,.15,1.52c0,4.69.05,9.39,0,14.08,0,1.13.3,1.41,1.41,1.41q19.59-.06,39.16,0c1.27,0,1.45-.41,1.45-1.55,0-8.58,0-17.17-.06-25.76,0-1.26.26-1.74,1.59-1.61a17.6,17.6,0,0,0,3.77,0c1.41-.15,1.66.41,1.66,1.71,0,15.17,0,30.34,0,45.51,0,5.32,0,10.65,0,16,0,1.06-.18,1.56-1.39,1.45a24.52,24.52,0,0,0-4.11,0c-1.23.1-1.51-.33-1.51-1.52.06-8.47,0-16.94.07-25.42,0-1.55-.37-2-2-1.95q-19.23.1-38.47,0c-1.25,0-1.63.26-1.62,1.58.07,8.53,0,17.06.06,25.59,0,1.24-.16,1.86-1.61,1.71-1.7-.16-4,.58-5-.29s-.33-3.33-.33-5.08q0-28.41,0-56.84V9.22Z"/><path class="cls-1" d="M226,9.27c9,.34,18,4.91,24.44,14.13.69,1,.47,1.37-.45,1.88-1.49.84-2.91,2.47-4.38,2.49s-2.09-2.26-3.18-3.46c-10.38-11.52-28.91-10.6-38.64,1.82s-5.1,27.93,6.48,35.89,25.48,5.35,33.88-6.1c.93-1.27,1.61-1.72,2.86-.58a8.22,8.22,0,0,0,1.3.83c3,1.88,3,1.88.8,4.77A32,32,0,1,1,199.89,20C206.21,13,214.47,9.25,226,9.27Z"/><path class="cls-1" d="M629.32,9.26c8.87.31,17.82,4.85,24.33,14.06.72,1,.62,1.46-.45,2a24.5,24.5,0,0,0-3.34,2.08c-1,.71-1.43.48-2.1-.45-5.24-7.23-12.4-11-21.28-10.7-10.92.32-18.57,6-22.86,15.84-4.06,9.29-1.66,17.83,4.74,25.29,4.82,5.62,11,8.94,18.5,9.17,8.7.26,15.34-3.88,20.48-10.57,1.09-1.42,1.82-1.59,3.14-.53a19.2,19.2,0,0,0,3,1.9c.85.45.79.82.29,1.53-7.29,10.4-17.36,15.31-29.91,14.17-15.87-1.45-27.68-14-28.8-29.94C593.84,25,608.66,9.26,629.32,9.26Z"/><path class="cls-1" d="M58.49,7.86h-38c-2.07,0-4.15,0-6.22,0-1,0-1.37.17-1.36,1.26,0,7.45.07,14.91,0,22.36,0,1.54.85,1.27,1.72,1.27,12.58,0,25.15,0,37.73,0a2.42,2.42,0,0,1,2.57,1.46c1.05,2.06,2.26,4.05,3.58,6.39H56.31c-13.81,0-27.61,0-41.42,0-1.64,0-2,.43-2,2,.08,9.66,0,19.32.07,29,0,1.31-.23,1.85-1.65,1.73a26,26,0,0,0-4.67,0c-1.34.11-1.55-.42-1.55-1.63q.06-18.27,0-36.56c0-11.09,0-22.17,0-33.26C5.07.34,5.41,0,6.87,0Q29.62.09,52.38,0a2.44,2.44,0,0,1,2.54,1.5C56,3.56,57.18,5.54,58.49,7.86Z"/><path class="cls-1" d="M186.27,73.21c-2.43,0-4.65,0-6.88,0-1.07,0-1.14-.75-1.43-1.38q-9.27-20.13-18.52-40.26c-.85-1.86-1.71-3.72-2.58-5.61-.74.3-.77,1-1,1.54q-10.25,22.13-20.43,44.28a2,2,0,0,1-2.3,1.43c-1.92-.1-3.85,0-6,0L156.7,9Z"/><path class="cls-1" d="M305.76,73.21,335.32,9c9.94,21.56,19.72,42.8,29.57,64.18-2.31,0-4.43-.09-6.53,0-1.15.07-1.42-.57-1.8-1.39q-9.4-20.52-18.85-41L335.48,26c-.73.31-.77,1-1,1.54Q324.22,49.66,314,71.81a2.05,2.05,0,0,1-2.31,1.43C309.81,73.14,307.88,73.21,305.76,73.21Z"/><path class="cls-1" d="M256.66,8.63h1.72c17.05,0,34.11,0,51.16,0,1.42,0,1.92.32,1.75,1.76-.21,1.68.7,4-.36,4.92s-3.14.26-4.79.26c-5.67,0-11.33.06-17,0-1.47,0-1.75.43-1.74,1.81.05,18,0,36.06.07,54.09,0,1.53-.37,2-1.88,1.84s-3.81.51-4.8-.31-.31-3.12-.31-4.76q0-25.41,0-50.82c0-1.55-.4-1.88-1.88-1.85-5.55.09-11.11,0-16.66.06a2,2,0,0,1-2.11-1.25C258.88,12.45,257.8,10.65,256.66,8.63Z"/><path class="cls-1" d="M464.07,0h2c19.32,0,38.64,0,58,0,1.64,0,2.16.39,2,2-.23,1.91.81,4.48-.4,5.58-1,.94-3.57.28-5.44.28-6.22,0-12.45.08-18.67,0-1.94,0-2.58.35-2.57,2.46.1,20.29,0,40.59.11,60.88,0,1.76-.47,2.27-2.15,2.07a16.86,16.86,0,0,0-3.69,0c-1.64.18-2.17-.26-2.15-2.06.09-12,.05-24,.05-36,0-8.49-.05-17,0-25.48,0-1.59-.48-1.9-1.95-1.88-6.29.08-12.58,0-18.87.07a2.58,2.58,0,0,1-2.68-1.6C466.52,4.25,465.33,2.27,464.07,0Z"/><path class="cls-1" d="M427.48,73.21h-9.67c-13.45,0-26.91,0-40.36,0-1.39,0-1.64-.41-1.64-1.7q.06-30.64,0-61.3c0-1.38.38-1.75,1.69-1.64a29.67,29.67,0,0,0,4.11,0c.9,0,1.17.23,1.15,1.14-.06,2.75,0,5.49,0,8.24,0,15.4,0,30.8-.05,46.2,0,1.86.56,2.17,2.26,2.16,12.36-.07,24.73,0,37.09-.07a2.17,2.17,0,0,1,2.27,1.31C425.23,69.41,426.31,71.16,427.48,73.21Z"/><polygon class="cls-1" points="156.54 61.83 161.8 73.01 151.28 73.01 156.54 61.83"/><polygon class="cls-1" points="335.45 61.83 340.72 73.01 330.19 73.01 335.45 61.83"/><path class="cls-1" d="M670.15,119.55v2.29c0,15.29,0,30.57,0,45.86,0,1.41-.31,1.94-1.77,1.78a17.32,17.32,0,0,0-3.67,0c-1.52.16-2-.22-2-1.92.08-15,0-30,0-44.93V100.08l49.85,53.22a3.79,3.79,0,0,0,.29-2.1q0-18.25,0-36.5a5.85,5.85,0,0,1,.83-3.11c2.12-3.62,4.16-7.29,6.47-11.35V173Z"/><path class="cls-1" d="M219.09,169.45c-3.38,0-6.31,0-9.23,0a1.94,1.94,0,0,1-1.56-.74Q193.72,153.37,179.12,138a5.39,5.39,0,0,1-.44-.68c2.9,0,5.63,0,8.35,0,3,0,6,.31,9-.37,7.43-1.71,12.07-8.34,11.37-16.1a14.72,14.72,0,0,0-14.29-13c-7-.13-14.06,0-21.09-.07-1.58,0-1.28.87-1.28,1.74,0,19.32,0,38.64,0,58,0,1.56-.28,2.17-2,2s-4.14.57-5.12-.33-.32-3.44-.33-5.25c0-20.55,0-41.09-.05-61.63,0-1.55.39-1.87,1.89-1.86,9.17.08,18.34,0,27.51,0a22.1,22.1,0,0,1,4.86,43.66l-2,.42Z"/><path class="cls-1" d="M430.1,169.45c-3.39,0-6.31,0-9.23,0a1.94,1.94,0,0,1-1.56-.74Q404.73,153.37,390.12,138a7.65,7.65,0,0,1-.43-.68c2.9,0,5.62,0,8.35,0,3,0,6,.31,8.95-.37,7.44-1.71,12.08-8.34,11.38-16.1a14.73,14.73,0,0,0-14.29-13c-7-.13-14.07,0-21.09-.07-1.58,0-1.28.87-1.28,1.74,0,19.32,0,38.64,0,58,0,1.56-.28,2.17-1.95,2s-4.15.57-5.12-.33c-1.12-1-.33-3.44-.33-5.25,0-20.55,0-41.09-.05-61.63,0-1.55.39-1.87,1.89-1.86,9.17.08,18.34,0,27.51,0a22.1,22.1,0,0,1,4.86,43.66l-2,.42Z"/><path class="cls-1" d="M151.39,135.19a34.22,34.22,0,1,1-34.44-34A34.27,34.27,0,0,1,151.39,135.19Zm-7.43.15a26.81,26.81,0,1,0-26.89,26.73A26.73,26.73,0,0,0,144,135.34Z"/><path class="cls-1" d="M362.39,135.31a34.21,34.21,0,1,1-34.14-34.14A34.25,34.25,0,0,1,362.39,135.31Zm-7.42,0a26.81,26.81,0,1,0-26.82,26.79A26.73,26.73,0,0,0,355,135.28Z"/><path class="cls-1" d="M650.83,135.32a34.21,34.21,0,1,1-34.12-34.15A34.25,34.25,0,0,1,650.83,135.32Zm-7.42,0a26.81,26.81,0,1,0-26.88,26.73A26.73,26.73,0,0,0,643.41,135.34Z"/><path class="cls-1" d="M230.85,134.82c0-10.89,0-21.77,0-32.65,0-1.25.11-1.77,1.62-1.76,9.23.09,18.46,0,27.69.06a22.08,22.08,0,0,1,21.94,18.37c2.34,12.65-7.82,25.34-20.67,25.63-7.09.17-14.18.12-21.27,0-1.71,0-2,.51-1.95,2,.08,7.15,0,14.3.06,21.46,0,1.19-.29,1.6-1.5,1.49-1.92-.18-4.51.8-5.6-.38-1-1-.29-3.59-.29-5.48Q230.84,149.21,230.85,134.82Zm7.37-12.38c0,4.4,0,8.8,0,13.2,0,1.13.2,1.56,1.46,1.55,6.85-.07,13.69,0,20.53,0a14.65,14.65,0,1,0,.14-29.29c-6.9-.1-13.81,0-20.71,0-1.15,0-1.44.31-1.42,1.43C238.26,113.64,238.22,118,238.22,122.44Z"/><path class="cls-1" d="M41,169.48C18,169.44,1.54,153.78.09,133.37a38.19,38.19,0,0,1,32.72-40.2c15.73-2.1,28.3,3.68,37.61,16.57.74,1,.75,1.52-.44,2.13a30.05,30.05,0,0,0-4.18,2.6c-1.14.84-1.71.67-2.53-.5a29.36,29.36,0,0,0-20.19-12.54A30.47,30.47,0,0,0,11,118.38c-5.59,11.31-3,24.78,6.82,34,8.62,8.1,18.63,11.41,30.24,7.52a30.36,30.36,0,0,0,15.09-11.59c.95-1.33,1.62-1.42,2.85-.51a28.59,28.59,0,0,0,4,2.5c1.17.59,1.16,1.08.45,2.11C62.59,163.66,51.74,169.14,41,169.48Z"/><path class="cls-1" d="M499.11,169.36l-.37.06c-2.56,0-5.56.79-7.56-.28s-2.33-4.22-3.37-6.48q-9.74-21.07-19.4-42.18c-.22-.49-.45-1-.69-1.47-.68.26-.71.87-.93,1.34q-11,23.72-21.92,47.46a2.28,2.28,0,0,1-2.54,1.68c-2-.14-4,0-6.35,0l31.59-68.56C478.16,123.89,488.6,146.54,499.11,169.36Z"/><path class="cls-1" d="M493.23,100.46H540c3.36,0,6.72.07,10.08,0,1.34,0,1.66.39,1.56,1.63a30.77,30.77,0,0,0,0,4.4c.09,1.14-.27,1.42-1.4,1.41-7.4,0-14.8,0-22.2-.06-1.5,0-1.93.31-1.92,1.87.06,19.2,0,38.4.07,57.6,0,1.68-.25,2.48-2.12,2.21s-4.07.75-5.07-.4c-.86-1-.28-3.26-.28-5q0-27.13,0-54.29c0-1.52-.23-2.08-1.94-2-6,.13-12,0-18,.07a1.87,1.87,0,0,1-2-1.12C495.74,104.68,494.53,102.72,493.23,100.46Z"/><path class="cls-1" d="M570.7,135c0,10.94,0,21.88,0,32.82,0,1.34-.27,1.84-1.68,1.69a21.59,21.59,0,0,0-4,0c-1.29.1-1.75-.18-1.74-1.64q.08-32.9,0-65.81c0-1.26.26-1.72,1.58-1.6a20.43,20.43,0,0,0,4.21,0c1.49-.16,1.64.47,1.64,1.74C570.68,113.1,570.7,124,570.7,135Z"/><polygon class="cls-1" points="467.36 157.21 472.93 169.05 461.79 169.05 467.36 157.21"/></g></g></svg>